<svg version="1.2" xmlns="http://www.w3.org/2000/svg" viewBox="0 0 256 256" width="256" height="256">
	<defs>
		<clipPath clipPathUnits="userSpaceOnUse" id="cp1">
			<path d="m0 0h256v256h-256z"/>
		</clipPath>
		<clipPath clipPathUnits="userSpaceOnUse" id="cp2">
			<path d="m40 41h175v175h-175z"/>
		</clipPath>
	</defs>
	<style>
		.s0 { fill: #242938 } 
		.s1 { fill: #13aff0 } 
	</style>
	<g id="Clip-Path" clip-path="url(#cp1)">
		<g>
			<path class="s0" d="m196 0h-136c-33.14 0-60 26.86-60 60v136c0 33.14 26.86 60 60 60h136c33.14 0 60-26.86 60-60v-136c0-33.14-26.86-60-60-60z"/>
			<g id="Clip-Path" clip-path="url(#cp2)">
				<g>
					<path class="s1" d="m44 168.25l14.16 24.51c2.87 5.57 8.59 9.39 15.12 9.39h94.36l-19.57-33.9z"/>
					<path class="s1" d="m212.35 168.41c0-3.34-0.95-6.52-2.7-9.23l-55.38-96.11c-2.86-5.41-8.43-9.07-14.95-9.07h-29.28l85.45 147.99 13.52-23.39c2.55-4.46 3.34-6.37 3.34-10.19z"/>
					<path fill-rule="evenodd" class="s1" d="m134.22 144.06l-38.03-66.03-38.19 66.03z"/>
				</g>
			</g>
		</g>
	</g>
</svg>